<svg id="svg" xmlns="http://www.w3.org/2000/svg" xmlns:xlink="http://www.w3.org/1999/xlink" width="400" height="433.8880484114977" viewBox="0, 0, 400,433.8880484114977"><g id="svgg"><path id="path0" d="M190.015 33.709 C 139.361 42.450,106.383 82.086,109.343 130.669 L 109.703 136.584 103.717 137.010 C 30.146 142.239,-8.230 224.946,35.318 284.418 C 69.086 330.531,140.788 333.554,177.904 290.430 C 180.531 287.377,181.543 286.538,181.543 287.410 C 181.543 300.029,176.493 326.047,172.519 333.907 C 162.925 352.878,154.498 358.325,125.772 364.121 L 108.926 367.519 108.926 384.974 L 108.926 402.428 201.210 402.409 L 293.495 402.391 293.495 384.944 L 293.495 367.498 280.635 364.959 C 255.984 360.093,251.000 358.185,242.517 350.367 C 230.414 339.216,225.788 328.162,223.021 303.782 C 222.170 296.293,221.316 289.213,221.123 288.048 C 220.786 286.026,221.034 286.210,226.619 292.125 C 279.558 348.202,373.497 318.645,384.786 242.360 C 392.802 188.196,349.352 136.762,295.581 136.762 L 293.096 136.762 293.354 127.231 C 294.757 75.448,252.866 32.914,200.908 33.366 C 195.749 33.411,190.847 33.565,190.015 33.709 M221.180 173.966 C 234.293 176.890,235.077 177.668,232.628 185.330 C 230.730 191.268,229.925 192.087,226.855 191.200 C 206.283 185.257,194.251 186.891,194.251 195.627 C 194.251 200.193,196.821 202.523,206.657 206.877 C 236.387 220.038,243.392 228.651,237.902 245.295 C 232.416 261.922,215.909 266.283,186.100 258.979 C 171.778 255.469,172.337 255.969,174.941 249.010 C 177.700 241.636,177.390 241.696,192.133 245.660 C 210.211 250.519,221.437 247.239,221.473 237.086 C 221.491 231.941,217.880 229.107,203.631 223.086 C 181.784 213.854,176.105 207.775,176.848 194.417 C 177.834 176.678,195.923 168.334,221.180 173.966 M294.429 174.139 C 312.681 179.057,321.999 194.056,321.960 218.457 C 321.940 231.152,319.873 239.795,314.827 248.281 C 312.411 252.345,312.421 252.371,317.665 255.374 C 321.983 257.846,322.492 259.020,320.970 263.004 C 317.906 271.027,314.509 271.192,304.313 263.815 L 300.305 260.915 295.841 262.133 C 271.513 268.769,251.675 257.650,246.827 234.661 C 238.456 194.965,261.758 165.337,294.429 174.139 M174.304 175.735 C 174.000 176.534,172.778 179.121,171.588 181.483 L 169.425 185.779 161.112 185.782 C 148.663 185.786,101.419 184.605,96.218 184.160 C 92.226 183.818,96.673 183.208,133.132 179.100 C 155.930 176.531,174.645 174.396,174.720 174.355 C 174.795 174.315,174.608 174.935,174.304 175.735 M277.280 189.306 C 267.144 192.933,262.921 201.536,262.969 218.457 C 263.029 239.666,267.973 247.279,282.148 247.991 C 288.393 248.305,288.364 248.363,284.666 242.861 C 279.866 235.719,279.877 235.610,285.831 231.509 C 290.037 228.612,291.291 228.844,294.559 233.123 C 298.473 238.249,299.528 239.195,300.464 238.418 C 304.835 234.791,305.759 210.275,301.913 199.995 C 298.393 190.588,287.232 185.745,277.280 189.306 M167.402 198.950 C 168.121 199.416,170.386 208.635,169.902 209.120 C 169.748 209.274,150.178 207.791,126.414 205.825 C 102.651 203.859,83.616 202.201,84.115 202.140 C 85.141 202.016,159.786 198.685,163.994 198.576 C 165.492 198.537,167.026 198.706,167.402 198.950 M187.643 224.745 C 191.111 226.540,197.032 229.297,200.802 230.873 C 212.988 235.966,210.905 235.934,142.511 229.981 C 119.546 227.982,97.961 226.164,94.544 225.941 C 91.128 225.718,88.453 225.415,88.601 225.267 C 88.799 225.069,156.229 222.302,178.868 221.563 C 180.769 221.501,182.787 222.233,187.643 224.745 M166.023 248.846 C 165.573 250.583,165.204 252.460,165.204 253.017 C 165.204 253.575,164.851 254.167,164.418 254.332 C 162.121 255.214,121.494 250.744,98.033 247.027 C 96.536 246.790,111.377 246.457,131.014 246.286 C 150.651 246.116,166.745 245.912,166.780 245.832 C 166.814 245.753,166.474 247.109,166.023 248.846 " stroke="none" fill="#000000" fill-rule="evenodd"></path></g></svg>