<svg id="svg" xmlns="http://www.w3.org/2000/svg" xmlns:xlink="http://www.w3.org/1999/xlink" width="400" height="447.16157205240177" viewBox="0, 0, 400,447.16157205240177"><g id="svgg"><path id="path0" d="M199.289 5.844 C 193.934 15.776,147.685 81.966,101.056 146.434 C 76.782 179.994,45.174 221.777,43.655 222.313 C 43.362 222.417,44.774 224.513,46.793 226.971 C 64.479 248.510,162.873 385.206,191.768 428.380 L 200.421 441.310 203.495 436.413 C 226.032 400.516,342.413 238.557,355.444 224.958 C 356.771 223.573,357.672 222.369,357.446 222.282 C 355.416 221.506,309.373 158.804,264.552 95.779 C 232.416 50.591,218.029 30.107,207.758 14.916 L 200.325 3.923 199.289 5.844 M208.950 173.229 C 220.807 174.926,227.345 177.643,226.686 180.597 C 225.763 184.727,223.337 191.105,222.578 191.397 C 222.095 191.582,218.782 191.050,215.216 190.214 C 195.877 185.678,186.329 187.430,186.319 195.517 C 186.314 200.450,188.720 202.367,202.883 208.713 C 229.567 220.671,236.416 230.338,230.021 247.017 C 223.399 264.287,205.441 267.099,168.052 256.718 L 165.798 256.093 166.097 253.439 C 166.503 249.836,170.018 243.143,171.629 242.904 C 172.304 242.805,175.951 243.634,179.732 244.747 C 201.350 251.112,214.276 248.351,214.263 237.371 C 214.257 232.168,210.682 229.629,191.665 221.316 C 174.352 213.749,169.141 207.935,169.141 196.185 C 169.141 177.865,183.498 169.586,208.950 173.229 M290.539 175.166 C 307.487 181.478,314.654 194.379,314.686 218.632 C 314.705 232.484,313.879 236.554,309.114 246.126 C 305.623 253.137,305.590 252.878,310.305 255.549 C 315.199 258.322,315.473 258.832,314.213 262.829 C 311.522 271.363,308.327 271.688,297.720 264.504 L 292.966 261.283 290.151 262.248 C 274.716 267.538,255.053 262.677,246.647 251.495 C 235.464 236.618,234.958 205.235,245.637 188.853 C 254.760 174.858,273.980 168.999,290.539 175.166 M165.720 177.729 C 164.968 179.410,163.727 182.069,162.962 183.636 L 161.572 186.487 147.307 186.112 C 139.461 185.906,122.693 185.706,110.044 185.668 C 95.012 185.622,87.953 185.420,89.665 185.085 C 91.106 184.803,106.041 182.724,122.853 180.465 C 139.665 178.206,155.779 176.011,158.661 175.588 C 161.543 175.164,164.618 174.785,165.495 174.745 L 167.089 174.672 165.720 177.729 M270.241 189.283 C 259.830 192.445,255.228 202.710,255.779 221.543 C 256.342 240.768,261.276 247.708,274.937 248.487 C 281.277 248.848,281.363 248.573,276.856 242.324 C 273.073 237.078,273.037 236.818,275.732 234.276 C 281.917 228.443,283.276 228.487,288.462 234.683 C 293.007 240.113,292.966 240.100,294.485 236.536 C 299.477 224.821,298.067 202.504,291.838 194.639 C 287.906 189.674,277.473 187.087,270.241 189.283 M160.141 199.709 C 160.670 200.774,162.538 209.126,162.300 209.364 C 161.894 209.770,81.659 205.593,80.349 205.098 C 79.390 204.735,153.777 198.608,157.437 198.749 C 158.803 198.801,159.879 199.183,160.141 199.709 M179.395 224.750 C 182.517 226.354,188.169 228.990,191.954 230.609 C 200.276 234.167,200.856 234.630,197.060 234.685 C 186.597 234.834,179.401 234.308,124.891 229.407 C 107.278 227.823,90.046 226.350,86.598 226.132 C 83.150 225.915,80.447 225.618,80.593 225.472 C 80.832 225.233,158.990 222.100,169.392 221.912 C 173.509 221.838,173.993 221.975,179.395 224.750 M158.742 247.307 C 158.583 247.868,158.125 249.857,157.724 251.729 L 156.995 255.132 151.132 254.757 C 138.513 253.948,92.183 248.223,87.680 246.915 C 86.567 246.592,99.833 246.373,122.456 246.341 C 157.025 246.291,159.015 246.344,158.742 247.307 " stroke="none" fill="#000000" fill-rule="evenodd"></path></g></svg>