<svg id="svg" xmlns="http://www.w3.org/2000/svg" xmlns:xlink="http://www.w3.org/1999/xlink" width="400" height="433.8880484114977" viewBox="0, 0, 400,433.8880484114977"><g id="svgg"><path id="path0" d="M98.033 40.188 C 51.138 47.438,17.999 92.290,13.914 154.041 C 10.504 205.566,32.007 240.585,113.467 316.175 C 152.274 352.186,174.132 373.507,191.491 392.284 C 195.106 396.195,198.484 399.395,198.996 399.395 C 199.508 399.395,204.982 394.403,211.159 388.302 C 217.336 382.201,233.964 366.231,248.109 352.813 C 360.566 246.141,384.904 207.998,380.020 146.079 C 374.889 81.041,337.494 39.679,283.812 39.665 C 249.260 39.656,226.299 55.653,205.757 94.046 C 198.194 108.179,198.651 108.252,190.318 91.581 C 175.163 61.266,159.224 47.475,131.921 41.055 C 125.260 39.489,105.780 38.990,98.033 40.188 M194.859 145.564 C 211.702 147.913,214.036 149.763,210.937 158.303 C 208.686 164.502,208.702 164.495,201.688 162.630 C 186.063 158.474,175.895 159.069,173.420 164.283 C 170.581 170.268,173.440 173.951,184.899 179.073 C 198.962 185.358,201.886 186.811,206.225 189.669 C 224.916 201.983,219.719 228.798,197.603 234.151 C 190.091 235.969,172.686 233.698,153.189 228.355 C 151.280 227.832,151.735 224.537,154.471 219.062 C 156.923 214.157,157.322 214.084,166.479 216.859 C 185.649 222.670,198.417 220.567,199.975 211.340 C 201.027 205.118,197.315 201.901,181.024 194.912 C 158.057 185.058,151.299 175.819,156.181 160.947 C 160.637 147.374,172.892 142.500,194.859 145.564 M266.475 145.290 C 286.397 147.733,297.241 159.680,300.207 182.451 C 301.873 195.244,299.008 211.405,293.483 220.385 C 291.003 224.416,291.108 224.727,295.915 227.534 C 300.769 230.369,301.169 231.585,298.894 236.600 C 295.820 243.379,291.270 242.877,280.684 234.593 L 278.868 233.171 274.835 234.377 C 268.054 236.403,254.152 236.202,247.806 233.985 C 232.011 228.466,224.787 216.609,224.063 195.017 C 223.110 166.564,233.824 149.461,255.068 145.524 C 260.516 144.514,260.203 144.520,266.475 145.290 M152.519 148.503 C 152.215 149.302,150.996 151.883,149.811 154.237 L 147.655 158.518 137.216 158.211 C 113.988 157.529,80.752 156.732,75.539 156.732 C 65.262 156.732,70.703 155.897,109.402 151.535 C 154.737 146.424,153.270 146.527,152.519 148.503 M257.999 160.958 C 246.738 163.343,241.303 173.103,241.313 190.923 C 241.323 211.449,247.213 220.165,261.286 220.484 C 266.488 220.601,266.635 219.950,262.636 214.482 C 258.796 209.232,258.846 208.189,263.099 204.729 C 267.962 200.773,268.997 200.721,271.968 204.284 C 278.897 212.595,278.710 212.547,280.940 206.621 C 283.007 201.128,282.977 180.371,280.892 173.733 C 277.849 164.047,268.376 158.760,257.999 160.958 M146.099 171.601 C 146.622 172.124,147.053 173.146,147.057 173.871 C 147.061 174.596,147.451 176.640,147.923 178.414 L 148.781 181.638 144.436 181.266 C 132.399 180.233,73.359 175.467,68.219 175.113 C 64.968 174.889,62.439 174.575,62.599 174.415 C 62.829 174.186,130.326 171.065,142.317 170.730 C 144.171 170.678,145.476 170.979,146.099 171.601 M165.858 196.909 C 169.326 198.703,175.247 201.460,179.016 203.036 C 188.333 206.930,187.624 207.297,172.494 206.415 C 159.294 205.646,154.680 205.267,108.926 201.205 C 92.118 199.713,75.507 198.256,72.012 197.968 C 67.822 197.623,66.689 197.402,68.684 197.319 C 79.202 196.883,155.616 193.785,157.386 193.722 C 158.924 193.668,161.379 194.591,165.858 196.909 M144.245 222.236 C 143.761 224.315,143.133 226.247,142.851 226.529 C 142.066 227.314,127.197 225.965,103.678 222.976 C 67.278 218.349,67.006 218.589,108.721 218.518 L 145.127 218.457 144.245 222.236 " stroke="none" fill="#000000" fill-rule="evenodd"></path></g></svg>