<?xml version="1.0" encoding="utf-8"?>
<svg viewBox="43.131 13.055 388.436 526.252" xmlns="http://www.w3.org/2000/svg">
  <g transform="matrix(1, 0, 0, 1, -18.651276, 27.307493)">
    <path class="st0" d="M 437.969 410.522 C 432.25 402.068 424.946 395.558 417.082 390.494 C 405.267 382.909 392.18 378.471 380.271 375.22 C 372.46 373.106 365.115 371.472 359.076 369.961 C 361.331 364.075 362.571 358.011 362.58 352.037 C 362.604 339.365 357.344 326.928 346.712 319.247 C 338.9 313.581 331.597 310.549 325.398 308.996 C 327.902 306.013 330.414 302.746 332.848 299.072 C 335.217 304.176 338.66 309.492 343.646 315.54 C 371 348.697 435.114 337.455 438.772 287.422 C 440.853 258.956 413.28 235.642 386.061 242.398 C 386.57 238.927 387.131 235.391 387.695 231.847 C 392.044 204.6 397.673 110.535 325.865 77.305 L 325.865 16.36 C 325.865 10.654 322.975 5.329 318.163 2.24 C 315.416 0.46 312.245 -0.442 309.063 -0.442 C 306.706 -0.442 304.336 0.053 302.129 1.061 L 285.465 8.612 L 267.99 -9.213 C 264.836 -12.432 260.511 -14.252 256 -14.252 C 251.489 -14.252 247.164 -12.432 244.002 -9.213 L 226.526 8.613 L 209.866 1.062 C 207.647 0.054 205.277 -0.441 202.928 -0.441 C 199.75 -0.441 196.576 0.461 193.82 2.249 C 189.024 5.329 186.126 10.646 186.126 16.36 L 186.126 77.555 C 116.427 110.923 120.947 203.297 124.921 230.285 C 125.441 233.837 125.957 237.381 126.429 240.852 C 99.304 233.788 71.447 256.768 73.19 285.259 C 76.255 335.331 140.235 347.329 167.979 314.498 C 172.933 308.646 176.368 303.468 178.79 298.501 C 181.338 302.387 183.964 305.857 186.602 308.995 C 180.396 310.548 173.1 313.58 165.289 319.246 C 154.657 326.927 149.389 339.356 149.422 352.036 C 149.429 358.003 150.661 364.067 152.917 369.936 C 147.877 371.213 142.012 372.546 135.647 374.179 C 120.17 378.195 102.059 383.917 87.273 396.053 C 79.896 402.125 73.422 409.864 68.887 419.586 C 64.346 429.307 61.774 440.916 61.782 454.563 C 61.782 457.969 61.937 461.505 62.266 465.179 C 62.506 467.765 63.539 469.805 64.689 471.446 C 66.904 474.511 69.757 476.722 73.337 479.006 C 79.601 482.924 88.27 486.752 99.385 490.516 C 132.632 501.717 187.728 511.984 255.992 512 C 311.462 512 358.275 505.196 391.679 496.654 C 408.393 492.37 421.727 487.679 431.359 483.006 C 436.187 480.648 440.09 478.324 443.203 475.755 C 444.755 474.471 446.133 473.105 447.308 471.455 C 448.458 469.805 449.486 467.773 449.734 465.188 C 450.054 461.514 450.218 457.986 450.218 454.58 C 450.247 436.387 445.613 421.788 437.969 410.522 Z M 396.545 280.268 C 386.502 282.34 383.799 274.163 384.108 261.808 C 399.182 264.165 406.604 278.196 396.545 280.268 Z M 115.496 278.61 C 105.469 276.423 113.057 262.474 128.156 260.296 C 128.315 272.651 125.523 280.788 115.496 278.61 Z M 196.409 16.36 C 196.409 14.158 197.539 12.076 199.396 10.89 C 200.465 10.191 201.688 9.841 202.928 9.841 C 203.838 9.841 204.757 10.028 205.627 10.426 L 228.83 20.944 L 251.342 -2.011 C 252.574 -3.263 254.244 -3.97 256 -3.97 C 257.756 -3.97 259.426 -3.262 260.646 -2.019 L 283.166 20.944 L 306.382 10.417 C 307.24 10.027 308.15 9.84 309.064 9.84 C 310.304 9.84 311.527 10.19 312.592 10.88 C 314.462 12.075 315.583 14.148 315.583 16.359 L 315.583 73.173 C 311.909 71.889 308.129 70.71 304.097 69.735 C 287.254 65.662 257.28 67.329 257.28 67.329 C 257.28 67.329 227.314 65.305 210.434 69.183 C 205.463 70.321 200.838 71.743 196.408 73.337 L 196.408 16.36 L 196.409 16.36 Z M 250.509 496.84 C 237.007 496.727 224.071 496.206 211.751 495.352 L 211.751 419.772 L 210.8 418.374 C 210.662 418.178 200.216 402.8 183.756 387.241 C 177.912 381.681 168.649 372.171 164.784 354.442 L 164.678 354.459 C 164.617 353.646 164.503 352.833 164.503 352.036 C 164.536 343.33 167.95 335.934 174.123 331.471 C 184.759 323.814 192.961 322.676 197.513 322.643 C 197.688 322.643 197.801 322.659 197.96 322.659 L 197.96 348.322 L 233.868 377.935 C 244.504 386.706 250.503 399.272 250.507 412.449 L 250.507 496.84 L 250.509 496.84 Z M 240.844 369.472 L 208.927 343.151 L 208.927 310.246 L 208.273 310.246 C 200.165 302.028 190.17 291.632 184.005 275.886 C 184.582 259.499 182.343 228.301 185.545 200.346 C 190.902 153.484 202.201 144.218 212.374 135.528 C 228.452 121.799 256.96 131.528 256.96 131.528 C 256.96 131.528 285.581 122.131 301.489 136.056 C 311.557 144.868 323.111 158.955 327.436 201.191 C 329.96 225.837 327.871 259.416 328.07 275.641 C 321.921 291.525 311.878 301.978 303.733 310.245 L 303.075 310.245 L 303.075 343.15 L 271.158 369.471 C 264.663 374.811 259.522 381.387 255.994 388.671 C 252.472 381.389 247.339 374.82 240.844 369.472 Z M 347.321 354.459 L 347.215 354.442 C 343.35 372.171 334.079 381.682 328.243 387.241 C 311.783 402.8 301.341 418.179 301.199 418.374 L 300.248 419.772 L 300.248 495.393 C 287.929 496.246 274.972 496.767 261.474 496.872 L 261.474 412.448 C 261.482 399.279 267.493 386.704 278.13 377.934 L 314.038 348.321 L 314.038 322.667 C 314.205 322.659 314.306 322.643 314.485 322.643 C 319.033 322.675 327.227 323.813 337.875 331.471 C 344.049 335.934 347.462 343.331 347.495 352.036 C 347.496 352.832 347.383 353.646 347.321 354.459 Z"/>
    <path class="st0" d="M314.787,261.06c-6.243,2.764-14.567,2.764-26.012-8.284c-10.453-10.096-26.723-3.406-32.775-1.39 c-6.052-2.015-22.321-8.706-32.775,1.39c-11.445,11.047-19.769,11.047-26.012,8.284c4.162,11.055,15.607,21.175,34.336,17.492 c13.863-2.723,21.443-16.022,24.451-22.76c3.008,6.739,10.588,20.038,24.451,22.76C299.179,282.235,310.625,272.115,314.787,261.06 z"/>
    <g id="SVGRepo_bgCarrier" stroke-width="0" transform="matrix(1, 0, 0, 1, 505.938202, -17.089708)"/>
    <g id="SVGRepo_tracerCarrier" stroke-linecap="round" stroke-linejoin="round" stroke="#CCCCCC" stroke-width="10.24" transform="matrix(1, 0, 0, 1, 505.938202, -17.089708)"/>
    <g id="SVGRepo_iconCarrier" transform="matrix(1, 0, 0, 1, 505.938202, -17.089708)">
      <g/>
    </g>
  </g>
  <path class="st0" d="M 197.068 241.068 C 212.886 241.068 212.89 216.547 197.068 216.547 C 181.252 216.547 181.256 241.068 197.068 241.068 Z"/>
  <path class="st0" d="M 278.818 241.068 C 294.63 241.068 294.634 216.547 278.818 216.547 C 263 216.547 263.004 241.068 278.818 241.068 Z"/>
  <g id="g-1" transform="matrix(1, 0, 0, 1, 668.059998, 100.501694)">
    <path id="path1" d="M -435.043 -49.99 C -440.592 -48.831 -443.713 -45.143 -443.723 -39.735 C -443.732 -34.699 -440.509 -31.581 -431.762 -28.165 C -425.616 -25.765 -423.588 -23.933 -424.142 -21.281 C -425.021 -17.064 -430.865 -16.251 -439.502 -19.145 C -441.236 -19.726 -442.291 -19.984 -442.608 -19.904 C -443.268 -19.739 -444.938 -16.228 -444.963 -14.954 L -444.98 -14.086 C -444.98 -14.086 -431.245 -10.14 -426.037 -11.205 C -420.116 -12.416 -416.499 -16.549 -416.525 -22.075 C -416.551 -27.713 -419.473 -30.625 -428.998 -34.508 C -434.85 -36.894 -436.283 -38.068 -436.153 -40.372 C -435.951 -43.965 -431.256 -44.611 -422.647 -42.23 C -420.31 -41.583 -420.356 -41.551 -419.331 -44.512 C -418.218 -47.731 -418.325 -47.9 -422.179 -49.017 C -425.953 -50.111 -432.2 -50.583 -435.043 -49.99 M -400.277 -49.868 C -408.978 -48.314 -413.907 -41.122 -413.895 -30.003 C -413.881 -18.029 -409.258 -11.757 -399.667 -10.7 C -396.859 -10.39 -392.843 -10.806 -390.814 -11.615 L -390.099 -11.9 L -388.499 -10.741 C -383.854 -7.376 -382.564 -7.31 -381.316 -10.372 C -380.258 -12.968 -380.303 -13.085 -382.885 -14.461 C -384.869 -15.52 -384.89 -15.573 -383.889 -17.079 C -379.413 -23.818 -379.462 -36.873 -383.989 -43.682 C -387.115 -48.384 -393.984 -50.992 -400.277 -49.868 M -481.506 -45.171 C -482.289 -45.031 -446.815 -44.242 -446.815 -44.242 C -446.815 -44.242 -444.123 -49.329 -444.546 -49.262 M -393.149 -42.586 C -389.687 -40.922 -388.249 -37.37 -388.249 -30.486 C -388.249 -26.443 -388.525 -24.581 -389.438 -22.476 C -390.109 -20.931 -390.331 -20.98 -391.872 -23.014 C -394.253 -26.158 -394.285 -26.167 -396.515 -24.457 C -399.029 -22.528 -399.022 -22.589 -397.032 -19.969 C -394.982 -17.269 -395.079 -17.074 -398.358 -17.329 C -404.04 -17.769 -406.399 -21.612 -406.379 -30.389 C -406.365 -36.338 -404.984 -39.894 -401.842 -42.071 C -399.717 -43.544 -395.642 -43.785 -393.149 -42.586 M -485.263 -37.342 C -479.326 -36.947 -446.528 -34.071 -446.396 -34.202 C -446.31 -34.288 -447.027 -36.709 -447.1 -37.24 C -447.336 -38.967 -447.242 -38.884 -448.9 -38.845 M -483.259 -27.37 C -477.52 -27.049 -442.321 -23.696 -437.165 -23.441 C -429.647 -23.069 -428.998 -23.188 -431.97 -24.389 C -435.798 -25.935 -438.138 -26.996 -439.699 -27.89 L -441.363 -28.846 L -443.751 -28.818 M -479.982 -18.247 C -479.872 -18.068 -448.744 -13.679 -448.739 -14.801 C -448.736 -15.256 -447.87 -18.261 -447.929 -18.319" stroke="none" fill-rule="evenodd" style=""/>
  </g>
</svg>