<?xml version="1.0" encoding="utf-8"?>
<svg viewBox="45.703 14.097 405.097 514.451" xmlns="http://www.w3.org/2000/svg">
  <g id="g-1" transform="matrix(1, 0, 0, 1, 1194.76001, 339.673187)">
    <path id="path1" d="M -953.995 -282.57 C -959.039 -281.516 -961.876 -278.164 -961.885 -273.248 C -961.893 -268.67 -958.964 -265.836 -951.013 -262.731 C -945.426 -260.549 -943.583 -258.884 -944.086 -256.473 C -944.885 -252.64 -950.197 -251.901 -958.048 -254.532 C -959.625 -255.06 -960.584 -255.294 -960.872 -255.222 C -961.472 -255.072 -962.99 -251.88 -963.012 -250.722 L -963.028 -249.933 C -963.028 -249.933 -950.543 -246.346 -945.809 -247.314 C -940.427 -248.415 -937.139 -252.172 -937.162 -257.195 C -937.186 -262.32 -939.842 -264.967 -948.5 -268.497 C -953.82 -270.666 -955.122 -271.733 -955.004 -273.827 C -954.821 -277.093 -950.553 -277.68 -942.727 -275.516 C -940.603 -274.928 -940.645 -274.899 -939.713 -277.59 C -938.701 -280.516 -938.799 -280.67 -942.302 -281.685 C -945.732 -282.68 -951.411 -283.109 -953.995 -282.57 M -922.393 -282.459 C -930.302 -281.046 -934.783 -274.509 -934.772 -264.402 C -934.759 -253.517 -930.557 -247.816 -921.838 -246.855 C -919.286 -246.574 -915.635 -246.952 -913.791 -247.687 L -913.141 -247.946 L -911.687 -246.893 C -907.464 -243.834 -906.292 -243.774 -905.157 -246.557 C -904.196 -248.917 -904.237 -249.023 -906.584 -250.274 C -908.387 -251.237 -908.406 -251.285 -907.496 -252.654 C -903.428 -258.78 -903.472 -270.647 -907.587 -276.836 C -910.429 -281.11 -916.673 -283.481 -922.393 -282.459 M -996.23 -278.189 C -996.942 -278.062 -964.696 -277.345 -964.696 -277.345 C -964.696 -277.345 -962.249 -281.969 -962.633 -281.908 M -915.914 -275.84 C -912.767 -274.327 -911.46 -271.098 -911.46 -264.841 C -911.46 -261.166 -911.71 -259.473 -912.54 -257.56 C -913.15 -256.155 -913.352 -256.2 -914.753 -258.049 C -916.917 -260.907 -916.946 -260.915 -918.973 -259.36 C -921.259 -257.607 -921.252 -257.662 -919.443 -255.281 C -917.58 -252.827 -917.668 -252.649 -920.649 -252.881 C -925.813 -253.281 -927.958 -256.774 -927.94 -264.753 C -927.927 -270.16 -926.672 -273.393 -923.816 -275.372 C -921.884 -276.71 -918.18 -276.93 -915.914 -275.84 M -999.645 -271.073 C -994.248 -270.714 -964.435 -268.1 -964.315 -268.219 C -964.237 -268.297 -964.889 -270.497 -964.955 -270.98 C -965.169 -272.55 -965.084 -272.475 -966.591 -272.439 M -997.823 -262.008 C -992.607 -261.717 -960.611 -258.669 -955.924 -258.437 C -949.09 -258.099 -948.5 -258.207 -951.202 -259.299 C -954.681 -260.704 -956.808 -261.668 -958.227 -262.481 L -959.74 -263.35 L -961.911 -263.325 M -994.845 -253.716 C -994.745 -253.553 -966.449 -249.563 -966.445 -250.583 C -966.442 -250.997 -965.655 -253.728 -965.708 -253.781" stroke="none" fill-rule="evenodd" style=""/>
    <g id="g-2" stroke-width="0" transform="matrix(1, 0, 0, 1, -1201.508878, -323.126993)"/>
    <g id="g-3" stroke-linecap="round" stroke-linejoin="round" stroke="#CCCCCC" stroke-width="10.24" transform="matrix(1, 0, 0, 1, -1201.508878, -323.126993)"/>
    <g id="g-4" transform="matrix(1, 0, 0, 1, -1202.508911, -323.126984)">
      <g>
        <path class="st0" d="M214.834,183.18c15.818,0,15.822-24.521,0-24.521C199.018,158.659,199.022,183.18,214.834,183.18z"/>
        <path class="st0" d="M296.584,183.18c15.812,0,15.816-24.521,0-24.521C280.766,158.659,280.77,183.18,296.584,183.18z"/>
        <path class="st0" d="M65.535,446.012c-0.094-0.108-0.167-0.224-0.261-0.332c-0.087-0.101-0.192-0.188-0.278-0.289 C65.177,445.6,65.354,445.802,65.535,446.012z"/>
        <path class="st0" d="M452.016,380.018C458.268,401.047,446.484,361.39,452.016,380.018L452.016,380.018z"/>
        <path class="st0" d="M202.031,362.952C202.309,363.097,202.262,363.068,202.031,362.952L202.031,362.952z"/>
        <path class="st0" d="M197.504,360.566c0.166,0.087,0.281,0.144,0.437,0.231C197.67,360.653,197.504,360.566,197.504,360.566z"/>
        <path class="st0" d="M 452.016 380.018 C 448.667 368.737 444.144 357.818 438.656 347.412 C 435.384 341.215 431.76 335.198 427.823 329.399 C 425.089 325.371 416.759 317.395 416.745 313.251 C 423.727 299.584 426.706 283.689 424.413 268.467 C 423.397 261.691 421.315 255.024 418.046 248.993 C 416.426 246.007 414.517 243.186 412.358 240.561 C 409.02 236.497 408.775 236.772 407.886 231.905 C 407.836 219.517 405.127 206.711 400.282 195.314 C 398.117 190.216 395.419 185.284 391.955 180.945 C 388.358 176.44 380.483 172.89 379.521 167.683 C 378.516 162.267 388.191 158.912 392.183 154.688 C 397.632 148.925 401.341 141.535 402.69 133.71 C 404.697 122.075 401.316 108.067 389.866 102.572 C 390.181 102.738 347.482 77.74 328.962 62.265 C 329.025 56.962 330.351 50.578 330.351 46.232 C 330.351 38.791 331.266 30.778 327.325 24.089 C 320.792 13.004 306.629 10.552 296.06 17.147 C 291.794 19.816 287.881 25.001 284.06 20.813 C 272.837 8.52 263.848 -3.071 254.856 -2.423 C 245.968 -2.297 232.103 15.622 228.411 19.664 C 223.7 24.82 221.661 21.088 216.172 17.654 C 206.21 11.434 193.389 11.912 185.717 21.71 C 180.456 28.428 181.067 36.339 181.067 44.301 C 181.067 50.549 181.067 56.797 181.067 63.038 C 181.067 64.737 162.783 77.276 159.85 79.316 C 148.392 87.285 136.468 94.588 124.164 101.184 C 111.697 107.866 106.27 119.428 108.732 133.704 C 110.08 141.528 113.79 148.926 119.239 154.689 C 121.453 157.033 123.936 159.108 126.601 160.916 C 132.339 164.799 132.534 163.916 131.319 170.968 C 119.601 177.158 112.817 189.48 108.75 201.636 C 106.548 208.223 105.03 215.057 104.191 221.949 C 103.786 225.253 103.547 228.58 103.533 231.906 C 102.644 236.772 102.398 236.498 99.06 240.562 C 87.949 254.078 84.547 272.322 87.038 289.352 C 88.256 297.668 90.86 305.767 94.674 313.245 C 94.66 317.403 86.333 325.365 83.599 329.4 C 75.055 341.975 67.997 355.578 62.769 369.86 C 53.571 394.996 46.47 423.408 65.275 445.681 C 89.913 474.404 131.037 489.583 166.406 499.453 C 210.929 511.884 257.315 515.457 303.068 508.471 C 343.52 502.295 385.05 489.785 419.782 467.679 C 435.54 457.649 453.267 443.584 457.523 424.32 C 460.65 410.173 455.994 393.396 452.016 380.018 Z M 197.413 60.336 C 194.352 47.722 194.905 21.074 206.478 27.382 C 215.326 32.914 224.545 41.661 235.226 34.075 C 241.866 29.357 245.605 20.665 251.849 13.807 C 253.499 11.994 256.872 9.847 259.953 13.816 C 266.046 20.491 270.422 26.806 277.168 32.808 C 287.484 41.968 296.276 30.605 306.819 25.792 C 313.537 22.725 319.673 30.476 318.634 35.29 C 317.916 47.747 316.732 53.655 314.843 61.743 C 312.555 71.538 309.989 76.04 308.411 78.057 C 307.351 79.413 288.81 82.309 286.609 82.599 C 276.319 83.937 266.064 84.212 255.709 84.212 C 246.536 84.212 237.45 84.031 228.313 83.018 C 221.006 82.215 213.727 80.986 206.605 79.164 C 202.052 77.992 200.087 71.356 197.413 60.336 Z M 150.153 194.23 C 150.938 187.085 151.896 179.956 153.187 172.883 C 153.809 169.469 154.503 166.071 155.284 162.694 C 158.137 162.853 161.022 162.738 163.828 162.166 C 174.245 160.062 179.947 151.536 185.519 143.314 C 198.933 123.529 219.846 111.626 243.203 123.225 C 247.679 125.445 251.841 128.266 255.71 131.425 C 276.276 114.648 302.512 114.049 320.033 135.294 C 325.927 142.439 329.976 151.463 337.291 157.35 C 341.011 160.344 345.474 162.058 350.206 162.571 C 354.69 163.049 355.796 160.965 356.896 166.121 C 357.843 170.554 358.653 175.016 359.347 179.499 C 362.887 202.437 370.263 237.386 337.577 239.122 C 325.005 239.787 314.585 227.443 304.569 221.268 C 291.365 213.118 276.179 209.922 261.955 217.718 C 257.279 220.278 257.427 222.765 252.597 219.598 C 249.505 217.573 246.187 215.902 242.668 214.76 C 235.91 212.569 228.719 212.539 221.888 214.412 C 207.078 218.476 196.828 229.981 183.696 237.082 C 175.261 241.652 160.939 239.064 154.496 231.861 C 145.666 221.991 148.851 206.046 150.153 194.23 Z M 248.446 338.38 C 248.446 347.333 248.446 356.278 248.446 365.23 C 248.446 406.868 248.446 448.513 248.446 490.152 C 245.278 490.065 214.874 488.835 214.874 487.035 C 214.874 483.803 214.874 480.577 214.874 477.345 C 214.874 463.294 214.874 449.244 214.874 435.193 C 214.874 412.205 222.203 373.567 197.504 360.565 C 177.914 349.717 158.494 338.452 139.306 326.888 C 126.513 319.179 116.444 311.087 111.302 296.488 C 106.476 282.777 106.62 265.82 116.206 254.127 C 125.74 274.844 145.814 287.449 167.578 292.156 C 173.363 293.407 175.608 299.388 179.915 303.51 C 184.069 307.48 188.737 310.886 193.625 313.887 C 203.814 320.142 215.056 324.741 226.565 327.915 C 228.973 328.58 248.447 331.842 248.447 332.478 C 248.446 334.446 248.446 336.413 248.446 338.38 Z M 234.941 315.059 C 219.581 311.457 203.708 305.043 191.708 294.573 C 217.242 293.661 239.486 278.404 255.001 258.922 C 255.235 259.298 255.475 259.674 255.709 260.05 C 255.944 259.674 256.183 259.298 256.418 258.922 C 271.933 278.404 294.176 293.661 319.711 294.573 C 297.525 313.982 263.339 321.777 234.941 315.059 Z M 375.024 325.132 C 354.906 337.324 334.568 349.278 313.916 360.551 C 289.589 373.546 296.553 410.289 296.553 433.133 C 296.553 447.422 296.553 461.712 296.553 476 C 296.553 479.587 296.553 483.174 296.553 486.754 C 296.553 489.053 266.478 490.059 262.981 490.153 C 262.981 449.093 262.981 408.026 262.981 366.966 C 262.981 357.739 262.981 348.519 262.981 339.292 C 262.981 337.123 262.981 334.954 262.981 332.784 C 262.981 331.099 278.609 329.508 281.157 328.887 C 302.617 323.615 328.321 312.811 340.097 292.896 C 363.259 288.746 385.087 276.141 395.215 254.129 C 414.944 278.142 397.712 311.37 375.024 325.132 Z"/>
        <path class="st0" d="M201.846,362.851c0.073,0.043,0.13,0.072,0.184,0.101C201.984,362.923,201.912,362.888,201.846,362.851z"/>
        <path class="st0" d="M200.437,362.114c0.682,0.354,1.128,0.592,1.41,0.738C201.514,362.677,201,362.402,200.437,362.114z"/>
        <path class="st0" d="M197.941,360.797c0.568,0.297,1.588,0.839,2.496,1.316C199.811,361.78,198.976,361.34,197.941,360.797z"/>
        <path class="st0" d="M419.482,251.856C419.565,252.037,419.598,252.11,419.482,251.856L419.482,251.856z"/>
        <path class="st0" d="M419.482,251.856c-0.062-0.137-0.134-0.289-0.134-0.289C419.428,251.741,419.446,251.777,419.482,251.856z"/>
      </g>
    </g>
  </g>
</svg>