<?xml version="1.0" encoding="utf-8"?>
<svg viewBox="54.658 17.103 388.904 515.675" xmlns="http://www.w3.org/2000/svg">
  <g id="g-1" transform="matrix(1, 0, 0, 1, 1192.170532, 334.591461)">
    <path id="path1" d="M -949.636 -249.343 C -954.68 -248.289 -957.517 -244.937 -957.526 -240.021 C -957.534 -235.443 -954.605 -232.609 -946.654 -229.504 C -941.067 -227.322 -939.224 -225.657 -939.727 -223.246 C -940.526 -219.413 -945.838 -218.674 -953.689 -221.305 C -955.266 -221.833 -956.225 -222.067 -956.513 -221.995 C -957.113 -221.845 -958.631 -218.653 -958.653 -217.495 L -958.669 -216.706 C -958.669 -216.706 -946.184 -213.119 -941.45 -214.087 C -936.068 -215.188 -932.78 -218.945 -932.803 -223.968 C -932.827 -229.093 -935.483 -231.74 -944.141 -235.27 C -949.461 -237.439 -950.763 -238.506 -950.645 -240.6 C -950.462 -243.866 -946.194 -244.453 -938.368 -242.289 C -936.244 -241.701 -936.286 -241.672 -935.354 -244.363 C -934.342 -247.289 -934.44 -247.443 -937.943 -248.458 C -941.373 -249.453 -947.052 -249.882 -949.636 -249.343 M -918.034 -249.232 C -925.943 -247.819 -930.424 -241.282 -930.413 -231.175 C -930.4 -220.29 -926.198 -214.589 -917.479 -213.628 C -914.927 -213.347 -911.276 -213.725 -909.432 -214.46 L -908.782 -214.719 L -907.328 -213.666 C -903.105 -210.607 -901.933 -210.547 -900.798 -213.33 C -899.837 -215.69 -899.878 -215.796 -902.225 -217.047 C -904.028 -218.01 -904.047 -218.058 -903.137 -219.427 C -899.069 -225.553 -899.113 -237.42 -903.228 -243.609 C -906.07 -247.883 -912.314 -250.254 -918.034 -249.232 M -991.871 -244.962 C -992.583 -244.835 -960.337 -244.118 -960.337 -244.118 C -960.337 -244.118 -957.89 -248.742 -958.274 -248.681 M -911.555 -242.613 C -908.408 -241.1 -907.101 -237.871 -907.101 -231.614 C -907.101 -227.939 -907.351 -226.246 -908.181 -224.333 C -908.791 -222.928 -908.993 -222.973 -910.394 -224.822 C -912.558 -227.68 -912.587 -227.688 -914.614 -226.133 C -916.9 -224.38 -916.893 -224.435 -915.084 -222.054 C -913.221 -219.6 -913.309 -219.422 -916.29 -219.654 C -921.454 -220.054 -923.599 -223.547 -923.581 -231.526 C -923.568 -236.933 -922.313 -240.166 -919.457 -242.145 C -917.525 -243.483 -913.821 -243.703 -911.555 -242.613 M -995.286 -237.846 C -989.889 -237.487 -960.076 -234.873 -959.956 -234.992 C -959.878 -235.07 -960.53 -237.27 -960.596 -237.753 C -960.81 -239.323 -960.725 -239.248 -962.232 -239.212 M -993.464 -228.781 C -988.248 -228.49 -956.252 -225.442 -951.565 -225.21 C -944.731 -224.872 -944.141 -224.98 -946.843 -226.072 C -950.322 -227.477 -952.449 -228.441 -953.868 -229.254 L -955.381 -230.123 L -957.552 -230.098 M -990.486 -220.489 C -990.386 -220.326 -962.09 -216.336 -962.086 -217.356 C -962.083 -217.77 -961.296 -220.501 -961.349 -220.554" stroke="none" fill-rule="evenodd" style=""/>
    <g id="g-2" stroke-width="0" transform="matrix(1, 0, 0, 1, -1201.508878, -323.126993)"/>
    <g id="g-3" stroke-linecap="round" stroke-linejoin="round" stroke="#CCCCCC" stroke-width="10.24" transform="matrix(1, 0, 0, 1, -1201.508878, -323.126993)"/>
    <g id="g-4" transform="matrix(1, 0, 0, 1, -1202.508911, -323.126984)">
      <g>
        <path class="st0" d="M 218.669 259.849 C 234.487 259.849 234.491 235.328 218.669 235.328 C 202.853 235.328 202.857 259.849 218.669 259.849 Z"/>
        <path class="st0" d="M 300.419 259.849 C 316.231 259.849 316.235 235.328 300.419 235.328 C 284.601 235.328 284.605 259.849 300.419 259.849 Z"/>
        <path class="st0" d="M65.535,446.012c-0.094-0.108-0.167-0.224-0.261-0.332c-0.087-0.101-0.192-0.188-0.278-0.289 C65.177,445.6,65.354,445.802,65.535,446.012z"/>
        <path class="st0" d="M452.016,380.018C458.268,401.047,446.484,361.39,452.016,380.018L452.016,380.018z"/>
        <path class="st0" d="M202.031,362.952C202.309,363.097,202.262,363.068,202.031,362.952L202.031,362.952z"/>
        <path class="st0" d="M197.504,360.566c0.166,0.087,0.281,0.144,0.437,0.231C197.67,360.653,197.504,360.566,197.504,360.566z"/>
        <path class="st0" d="M201.846,362.851c0.073,0.043,0.13,0.072,0.184,0.101C201.984,362.923,201.912,362.888,201.846,362.851z"/>
        <path class="st0" d="M200.437,362.114c0.682,0.354,1.128,0.592,1.41,0.738C201.514,362.677,201,362.402,200.437,362.114z"/>
        <path class="st0" d="M197.941,360.797c0.568,0.297,1.588,0.839,2.496,1.316C199.811,361.78,198.976,361.34,197.941,360.797z"/>
        <path class="st0" d="M419.482,251.856C419.565,252.037,419.598,252.11,419.482,251.856L419.482,251.856z"/>
        <path class="st0" d="M419.482,251.856c-0.062-0.137-0.134-0.289-0.134-0.289C419.428,251.741,419.446,251.777,419.482,251.856z"/>
        <g transform="matrix(1, 0, 0, 1, -360.767686, -44.660499)">
          <path class="st0" d="M 624.421 167.72 L 624.466 167.72 L 682.773 167.72 C 682.773 167.72 706.68 132.326 697.009 108.334 C 688.559 87.342 652.985 84.714 626.951 97.234 L 626.951 82.189 L 647.135 82.189 L 647.135 67.607 L 626.951 67.607 L 626.951 50.299 L 613.123 50.299 L 613.123 67.607 L 592.946 67.607 L 592.946 82.189 L 613.123 82.189 L 613.123 97.241 C 587.086 84.713 551.512 87.342 543.051 108.333 C 533.383 132.325 556.601 167.719 556.601 167.719 L 624.421 167.719 L 624.421 167.72 Z M 554.706 111.523 C 557.334 105.424 570.691 99.598 579.932 100.484 C 591.715 101.613 604.438 102.93 613.402 109.517 C 615.064 110.974 621.854 114.144 626.38 109.465 C 636.529 98.256 697.618 91.437 689.475 125.443 C 686.41 138.243 680.285 153.569 676.014 159.326 L 621.441 160.028 L 564.881 158.476 C 559.928 154.609 555.059 136.309 552.942 127.989 C 551.287 121.486 551.795 118.279 554.706 111.523 Z"/>
          <path class="st0" d="M 571.239 470.912 C 567.138 470.912 563.81 474.03 563.81 477.879 C 563.81 481.729 567.138 484.833 571.239 484.833 C 575.343 484.833 578.672 481.729 578.672 477.879 C 578.672 474.03 575.344 470.912 571.239 470.912 Z"/>
          <path class="st0" d="M 592.048 486.226 C 587.944 486.226 584.615 489.344 584.615 493.193 C 584.615 497.042 587.943 500.147 592.048 500.147 C 596.149 500.147 599.478 497.043 599.478 493.193 C 599.477 489.344 596.149 486.226 592.048 486.226 Z"/>
          <path class="st0" d="M 619.686 494.304 C 615.582 494.304 612.253 497.422 612.253 501.265 C 612.253 505.107 615.581 508.219 619.686 508.219 C 623.787 508.219 627.115 505.107 627.115 501.265 C 627.115 497.422 623.787 494.304 619.686 494.304 Z"/>
          <path class="st0" d="M 668.129 470.912 C 664.025 470.912 660.696 474.03 660.696 477.879 C 660.696 481.729 664.024 484.833 668.129 484.833 C 672.23 484.833 675.558 481.729 675.558 477.879 C 675.558 474.03 672.229 470.912 668.129 470.912 Z"/>
          <path class="st0" d="M 647.32 486.226 C 643.219 486.226 639.891 489.344 639.891 493.193 C 639.891 497.042 643.219 500.147 647.32 500.147 C 651.425 500.147 654.753 497.043 654.753 493.193 C 654.753 489.344 651.425 486.226 647.32 486.226 Z"/>
        </g>
      </g>
    </g>
  </g>
  <path class="st0" d="M 406.839 445.978 C 396.233 431.105 380.126 422.883 364.987 417.536 C 357.399 414.86 349.973 412.894 343.437 411.224 C 342.299 410.927 341.23 410.658 340.15 410.382 C 343.726 407.713 347.1 404.988 350.09 402.222 C 357.52 395.289 363.076 388.267 365.918 380.975 C 367.208 377.609 367.854 374.215 367.846 370.925 C 367.859 365.02 365.773 359.612 362.603 355.197 C 357.833 348.547 350.811 343.774 343.264 340.47 C 337.166 337.821 330.699 336.193 324.46 335.627 C 325.719 332.323 326.788 328.777 327.671 325.004 C 329.399 324.266 331.113 323.438 332.769 322.355 C 336.929 319.671 340.529 315.705 343.558 310.317 C 346.614 304.923 349.301 298.032 352.164 288.657 C 352.202 288.533 352.209 288.43 352.243 288.305 L 363.511 280.979 C 373.427 271.922 381.263 258.98 372.961 243.453 C 387.706 226.193 380.798 197.897 361.537 184.777 C 352.063 148.437 331.257 143.801 313.053 141.946 L 250.127 141.946 L 249.475 141.946 L 186.549 141.946 C 168.341 143.802 147.536 148.437 138.065 184.777 C 118.812 197.897 111.897 226.193 126.638 243.453 C 118.347 258.981 126.18 271.922 136.092 280.979 L 147.356 288.305 C 147.394 288.436 147.401 288.532 147.439 288.657 C 151.267 301.143 154.744 309.262 159.267 315.243 C 161.519 318.202 164.082 320.569 166.837 322.355 C 168.496 323.438 170.203 324.265 171.931 325.004 C 172.814 328.778 173.887 332.324 175.149 335.627 C 166.319 336.42 157.024 339.283 149.029 344.195 C 144.373 347.093 140.165 350.673 136.995 355.122 C 133.829 359.53 131.743 364.945 131.756 370.856 C 131.753 374.14 132.398 377.54 133.688 380.9 C 136.451 388.026 141.652 395.069 148.63 402.002 C 151.544 404.878 154.807 407.728 158.318 410.508 C 155.462 411.226 152.482 411.964 149.312 412.819 C 135.192 416.641 118.498 422.159 104.908 433.058 C 98.135 438.515 92.178 445.364 87.99 453.877 C 83.793 462.382 81.395 472.495 81.402 484.318 C 81.402 487.071 81.53 489.912 81.792 492.845 C 81.985 494.901 82.823 496.577 83.799 497.963 C 85.675 500.529 88.152 502.433 91.259 504.399 C 96.694 507.772 104.231 511.056 113.879 514.298 C 142.751 523.942 190.563 532.764 249.805 532.778 C 297.934 532.778 338.558 526.922 367.555 519.574 C 382.062 515.897 393.644 511.855 402.015 507.84 C 406.206 505.805 409.596 503.804 412.283 501.604 C 413.628 500.5 414.807 499.334 415.801 497.962 C 416.78 496.575 417.619 494.899 417.808 492.844 C 418.07 489.912 418.198 487.077 418.198 484.338 C 418.225 468.576 413.9 455.87 406.839 445.978 Z M 173.98 311.407 C 171.738 309.917 169.765 307.951 167.426 303.874 C 165.923 301.225 164.343 297.604 162.681 293.016 C 166.999 290.588 172.731 286.145 172.731 279.688 C 180.864 272.073 175.969 245.183 175.969 245.183 C 175.969 245.183 191.366 247.335 198.737 226.62 C 213.717 184.548 241.63 197.813 249.805 183.602 C 257.976 197.813 285.886 184.547 300.876 226.62 C 308.236 247.335 323.644 245.183 323.644 245.183 C 323.644 245.183 318.743 272.073 326.883 279.688 C 326.883 286.159 332.636 290.608 336.947 293.036 C 334.429 300.01 332.108 304.508 329.942 307.308 C 328.487 309.212 327.145 310.412 325.627 311.406 C 324.113 312.386 322.354 313.172 320.067 313.938 L 316.428 315.159 L 315.714 318.932 C 311.579 340.627 299.6 352.927 290.67 362.232 L 288.849 364.129 L 288.849 366.764 C 288.849 376.236 288.849 380.788 288.849 385.934 C 288.342 386.479 287.373 387.3 285.865 388.114 C 282.73 389.866 277.615 391.611 271.368 392.798 C 265.112 394.005 257.71 394.716 249.79 394.716 C 237.808 394.722 226.946 393.06 219.576 390.584 C 215.896 389.377 213.109 387.928 211.64 386.748 C 211.254 386.445 210.974 386.176 210.764 385.955 C 210.764 380.795 210.764 376.249 210.764 366.764 L 210.764 364.129 L 208.94 362.232 C 200.006 352.926 188.028 340.627 183.896 318.932 L 183.182 315.159 L 179.543 313.938 C 177.256 313.173 175.493 312.386 173.98 311.407 Z M 157.834 392.71 C 151.736 386.702 147.604 380.748 145.9 376.216 C 145.134 374.222 144.838 372.464 144.834 370.856 C 144.844 367.987 145.765 365.379 147.648 362.709 C 150.442 358.729 155.592 354.949 161.562 352.369 C 167.512 349.769 174.22 348.34 179.625 348.355 C 180.204 348.355 180.743 348.389 181.287 348.424 C 186.63 357.446 192.756 364.234 197.684 369.38 C 197.684 378.583 198.93 388.723 198.93 388.723 C 199.247 389.793 199.699 390.807 200.254 391.696 C 202.175 394.759 204.92 396.814 208.114 398.587 C 212.922 401.209 218.996 403.126 226.084 404.493 C 233.154 405.845 241.215 406.603 249.79 406.603 C 262.88 406.596 274.724 404.872 283.784 401.871 C 288.323 400.34 292.19 398.532 295.318 396.09 C 296.874 394.862 298.267 393.455 299.346 391.689 C 299.905 390.799 300.35 389.792 300.671 388.722 C 300.671 388.722 301.919 378.582 301.919 369.386 C 306.817 364.268 312.901 357.528 318.226 348.581 C 318.823 348.547 319.333 348.436 319.972 348.436 C 327.194 348.394 336.686 351.01 343.681 355.39 C 347.199 357.563 350.082 360.143 351.959 362.785 C 353.839 365.455 354.763 368.062 354.773 370.925 C 354.766 372.539 354.473 374.292 353.704 376.292 C 352.08 380.638 347.72 386.618 341.194 392.633 C 331.433 401.711 316.978 411.058 300.491 417.984 C 284.801 424.593 267.269 428.994 250.113 429.415 L 247.467 429.415 C 223.485 429.428 199.794 421.302 181.209 410.355 C 171.924 404.892 163.922 398.738 157.834 392.71 Z M 333.68 480.751 L 249.804 480.751 L 165.928 480.751 L 153.198 424.559 C 155.329 423.979 157.492 423.386 159.527 422.876 C 163.887 421.786 167.925 420.813 171.609 419.799 C 177.531 423.477 183.93 426.897 190.741 429.912 C 205.935 436.624 223.083 441.328 240.933 442.281 L 247.469 442.571 C 274.386 442.543 301.123 433.659 322.549 421.787 C 323.922 421.028 325.205 420.221 326.526 419.435 C 332.286 421.159 339.05 422.718 346.375 424.712 L 333.68 480.751 Z"/>
</svg>