<svg id="svg" xmlns="http://www.w3.org/2000/svg" xmlns:xlink="http://www.w3.org/1999/xlink" width="400" height="433.8880484114977" viewBox="0, 0, 400,433.8880484114977"><g id="svgg"><path id="path0" d="M197.262 41.891 C 166.892 89.602,134.721 126.292,87.745 166.789 C 51.316 198.193,42.017 211.391,37.480 238.124 C 32.051 270.119,38.838 295.659,57.589 313.806 C 89.001 344.204,139.070 342.620,182.602 309.850 C 185.651 307.554,185.506 306.970,184.550 317.700 C 180.989 357.643,165.744 382.110,133.132 400.222 L 129.198 402.407 201.210 402.387 L 273.222 402.367 270.855 401.032 C 236.305 381.557,220.356 355.620,218.077 315.207 L 217.655 307.716 220.325 309.871 C 252.016 335.452,295.284 342.767,325.265 327.611 C 358.827 310.645,372.583 279.060,364.976 236.431 C 360.431 210.961,350.649 197.356,314.675 166.474 C 270.013 128.133,242.204 96.998,211.658 51.135 C 206.337 43.147,201.804 36.414,201.583 36.173 C 201.361 35.932,199.417 38.505,197.262 41.891 M213.013 188.529 C 229.753 190.864,232.066 192.663,229.272 201.174 C 227.243 207.355,227.254 207.351,218.070 205.214 C 200.446 201.111,191.779 202.578,190.807 209.827 C 190.141 214.788,192.844 217.431,203.367 222.112 C 231.724 234.726,238.103 241.550,235.536 256.523 C 231.898 277.739,213.183 282.612,174.955 272.297 L 169.941 270.944 170.318 268.755 C 170.526 267.551,171.654 264.592,172.824 262.179 C 175.354 256.964,175.146 257.010,184.036 259.671 C 203.165 265.394,214.692 264.068,217.815 255.785 C 220.265 249.286,215.928 244.782,201.513 238.856 C 178.068 229.217,171.172 221.385,173.643 207.198 C 176.344 191.688,189.825 185.295,213.013 188.529 M292.284 189.591 C 302.777 193.028,309.590 198.818,313.789 207.867 C 321.323 224.103,320.112 251.171,311.269 264.201 C 309.322 267.072,309.729 267.972,314.120 270.496 C 319.235 273.437,319.238 273.443,317.739 277.947 C 314.898 286.483,311.867 286.614,300.583 278.687 L 296.942 276.130 293.252 277.370 C 284.218 280.406,266.938 278.694,259.158 273.994 C 234.554 259.127,236.426 205.919,262.027 192.446 C 270.125 188.185,283.997 186.876,292.284 189.591 M171.245 190.469 C 171.239 190.719,170.067 193.238,168.639 196.067 L 166.044 201.210 159.119 201.081 C 129.613 200.529,86.512 199.379,87.746 199.177 C 98.735 197.377,171.260 189.813,171.245 190.469 M276.154 203.922 C 264.308 206.438,259.058 217.002,259.785 236.855 C 260.473 255.630,265.290 262.351,278.973 263.623 C 284.740 264.159,284.981 263.352,280.836 257.390 C 276.917 251.752,276.990 251.047,281.881 247.358 C 286.922 243.554,287.222 243.613,291.982 249.319 C 296.796 255.091,296.782 255.088,298.718 250.711 C 303.162 240.662,301.669 218.317,296.017 210.287 C 292.551 205.364,283.309 202.402,276.154 203.922 M164.411 214.372 C 164.722 214.788,165.313 216.843,165.725 218.937 C 166.136 221.032,166.636 223.171,166.835 223.689 C 167.151 224.514,166.564 224.584,162.116 224.249 C 147.406 223.139,81.781 217.830,80.484 217.644 C 79.652 217.525,80.605 217.364,82.602 217.287 C 87.903 217.080,161.040 213.800,162.558 213.700 C 163.266 213.654,164.100 213.956,164.411 214.372 M183.489 239.622 C 185.942 240.945,190.796 243.227,194.277 244.694 C 203.324 248.506,203.937 248.824,203.526 249.488 C 202.934 250.448,189.585 249.575,140.696 245.383 C 81.207 240.282,82.884 240.443,87.443 240.276 C 89.440 240.203,106.868 239.523,126.172 238.764 C 145.477 238.005,165.267 237.347,170.150 237.301 L 179.030 237.216 183.489 239.622 M163.186 262.287 C 163.004 262.762,162.667 264.192,162.437 265.464 C 161.614 270.017,161.535 270.064,155.317 269.607 C 142.078 268.636,102.416 263.790,93.797 262.091 C 92.076 261.752,104.397 261.530,127.296 261.488 C 158.464 261.431,163.472 261.543,163.186 262.287 " stroke="none" fill="#000000" fill-rule="evenodd"></path></g></svg>